<?xml version="1.0" encoding="UTF-8"?>
<svg id="Layer_1" data-name="Layer 1" xmlns="http://www.w3.org/2000/svg" viewBox="0 0 62.73 73.57">
  <defs>
    <style>
      .cls-1 {
        isolation: isolate;
      }

      .cls-2 {
        fill: #5fb3e4;
      }
    </style>
  </defs>
  <g id="book-2" class="cls-1">
    <g class="cls-1">
      <path class="cls-2" d="M59.61,68.63c.9,0,1.64.74,1.64,1.64v1.09c0,.9-.74,1.64-1.64,1.64H10.94c-6.04,0-10.94-4.89-10.94-10.94V13.94C0,7.9,4.89,3,10.94,3h47.03c1.82,0,3.28,1.46,3.28,3.28v50.31c0,1.37-.85,2.54-2.04,3.04-.49,2.2-.6,6.23-.05,9h.45ZM10.94,55.5h2.19V7.38h-2.19c-3.62,0-6.56,2.94-6.56,6.56v43.75c1.83-1.37,4.1-2.19,6.56-2.19ZM55.28,59.88H10.94c-8.75,0-8.75,8.75,0,8.75h44.34c-.42-2.79-.4-6.18,0-8.75ZM56.88,55.5V7.38H17.5v48.12h39.38ZM25.7,24.88c-.9,0-1.64-.74-1.64-1.64v-1.09c0-.9.74-1.64,1.64-1.64h22.97c.9,0,1.64.74,1.64,1.64v1.09c0,.9-.74,1.64-1.64,1.64h-22.97ZM48.67,33.63h-22.97c-.9,0-1.64-.74-1.64-1.64v-1.09c0-.9.74-1.64,1.64-1.64h22.97c.9,0,1.64.74,1.64,1.64v1.09c0,.9-.74,1.64-1.64,1.64Z"/>
    </g>
  </g>
</svg>