<?xml version="1.0" encoding="UTF-8"?>
<svg id="Layer_1" data-name="Layer 1" xmlns="http://www.w3.org/2000/svg" viewBox="0 0 87.5 70.02">
  <defs>
    <style>
      .cls-1 {
        isolation: isolate;
      }

      .cls-2 {
        fill: #5fb3e4;
      }
    </style>
  </defs>
  <g id="cricket-2" class="cls-1">
    <g class="cls-1">
      <path class="cls-2" d="M85.17,11.75l-20.33,14.31c-1.98,1.39-2.46,4.12-1.08,6.1l1.26,1.79c1.41,2.01.89,4.72-1.08,6.1l-41.03,28.74c-.97.68-3.51,1.97-6.36.67C7.18,65.17.85,56.12.02,45.87c-.18-2.2.89-4.4,2.8-5.74L43.86,11.37c1.98-1.38,4.7-.9,6.08,1.08l1.26,1.79c1.39,1.98,4.12,2.46,6.1,1.08L77.65.99c1.2-.83,2.65-1.18,4.09-.9,1.44.26,2.69,1.05,3.53,2.26l1.26,1.79c1.72,2.47,1.12,5.88-1.35,7.62ZM51.18,43.64l-18.28-3.23,3.23-18.28L5.32,43.69c-.63.45-1,1.15-.94,1.8.12,4.06,2.9,14.89,13.99,19.99.6.27,1.39.18,2.02-.27l30.79-21.57ZM60.79,35.58l-13.79-19.71c-.34-.51-1.03-.62-1.52-.27l-4.28,2.99-3.23,18.28,18.28,3.23,4.28-2.99c.49-.36.62-1.03.26-1.52ZM82.93,6.66l-1.26-1.79c-.37-.55-1.07-.59-1.52-.27l-23.93,16.83,2.52,3.58,23.93-16.83c.49-.34.62-1.03.26-1.52ZM78.76,59.07c0,6.03-4.91,10.94-10.94,10.94s-10.94-4.91-10.94-10.94,4.91-10.94,10.94-10.94,10.94,4.91,10.94,10.94ZM74.38,59.07c0-3.62-2.94-6.56-6.56-6.56s-6.56,2.94-6.56,6.56,2.94,6.56,6.56,6.56,6.56-2.94,6.56-6.56Z"/>
    </g>
  </g>
</svg>