<?xml version="1.0" encoding="UTF-8"?>
<svg id="Layer_1" data-name="Layer 1" xmlns="http://www.w3.org/2000/svg" viewBox="0 0 87.5 72.39">
  <defs>
    <style>
      .cls-1 {
        isolation: isolate;
      }

      .cls-2 {
        fill: #5fb3e4;
      }
    </style>
  </defs>
  <g id="school-2" class="cls-1">
    <g class="cls-1">
      <path class="cls-2" d="M87.5,31.24v38.28c0,.6-.49,1.09-1.09,1.09h-2.19c-.6,0-1.09-.49-1.09-1.09V31.24h-13.12v38.28c0,.6-.49,1.09-1.09,1.09h-2.19c-.6,0-1.09-.49-1.09-1.09V19.58l-21.88-14.58-21.88,14.58v49.95c0,.6-.49,1.09-1.09,1.09h-2.19c-.6,0-1.09-.49-1.09-1.09V31.24H4.38v38.28c0,.6-.49,1.09-1.09,1.09H1.09c-.6,0-1.09-.49-1.09-1.09V31.24c0-2.42,1.96-4.38,4.38-4.38h13.12v-7.29c0-1.52.77-2.86,1.95-3.64L41.32,1.35c.73-.49,1.58-.73,2.43-.73s1.69.25,2.43.73l21.88,14.58c1.22.81,1.95,2.18,1.95,3.64v7.29h13.12c2.42,0,4.38,1.96,4.38,4.38ZM56.88,26.87c0,7.24-5.89,13.12-13.12,13.12s-13.12-5.89-13.12-13.12,5.89-13.12,13.12-13.12,13.12,5.89,13.12,13.12ZM56.88,50.93v18.59c0,.6-.49,1.09-1.09,1.09h-2.19c-.6,0-1.09-.49-1.09-1.09v-18.59c0-1.21-.98-2.19-2.19-2.19h-13.12c-1.21,0-2.19.98-2.19,2.19v18.59c0,.6-.49,1.09-1.09,1.09h-2.19c-.6,0-1.09-.49-1.09-1.09v-18.59c0-3.62,2.94-6.56,6.56-6.56h13.12c3.62,0,6.56,2.94,6.56,6.56ZM52.5,26.87c0-4.83-3.93-8.75-8.75-8.75s-8.75,3.92-8.75,8.75,3.93,8.75,8.75,8.75,8.75-3.92,8.75-8.75ZM49.22,27.96v2.19c0,.6-.49,1.09-1.09,1.09h-5.47c-.6,0-1.09-.49-1.09-1.09v-7.66c0-.6.49-1.09,1.09-1.09h2.19c.6,0,1.09.49,1.09,1.09v4.38h2.19c.6,0,1.09.49,1.09,1.09Z"/>
    </g>
  </g>
</svg>