<?xml version="1.0" encoding="UTF-8"?>
<svg id="Layer_1" data-name="Layer 1" xmlns="http://www.w3.org/2000/svg" viewBox="0 0 87.5 72.2">
  <defs>
    <style>
      .cls-1 {
        isolation: isolate;
      }

      .cls-2 {
        fill: #5fb3e4;
      }
    </style>
  </defs>
  <g id="theatre-masks-2" class="cls-1">
    <g class="cls-1">
      <path class="cls-2" d="M87.36,28.12l-4.34,24.6c-1.95,11.04-18.64,19.47-27.95,19.47-8.09,0-16.32-9.76-16.67-10.17-2.7,1.34-4.07,1.59-5.96,1.59-9.31,0-26.01-8.44-27.95-19.47L.14,19.55c-.68-3.85,1.09-7.69,4.4-9.53C13.81,4.86,24.15,2.2,34.63,2.2c3.27,0,6.56.26,9.82.78,3.55.57,6.65,3.28,7.46,7.83,14.64-.22,25.34,4.61,31.05,7.78,3.3,1.84,5.08,5.68,4.4,9.53ZM35.71,58.52c-3.24-4.74-5.24-10.07-4.39-14.92l.31-1.79c-6.65.76-9.56,4.63-9.7,4.8-.64.8-2,1.2-3.08.33-.94-.76-1.09-2.13-.33-3.08.19-.24,4.7-6.11,13.9-6.53l3.24-18.35c.68-3.85,3.65-6.85,7.39-7.45,1.48-.24,2.96-.4,4.44-.53-.41-1.94-1.87-3.43-3.72-3.72C24.37,4.19,10.14,11.91,6.67,13.84c-1.68.93-2.57,2.92-2.21,4.95l4.34,24.6c1.49,8.45,15.79,15.86,23.64,15.86,1.07,0,1.83-.11,3.27-.72ZM12.99,27.38c-.83-.88-.79-2.26.09-3.09.88-.82,2.26-.79,3.09.09.7.74,2.12,1.97,3.71,1.67,1.59-.28,2.51-1.9,2.91-2.84.48-1.11,1.76-1.63,2.88-1.15,1.11.48,1.62,1.76,1.15,2.87-1.28,2.98-3.53,4.96-6.17,5.42-4.06.72-6.95-2.23-7.66-2.99ZM80.84,22.41c-3.43-1.91-17.67-9.65-37.1-6.54-1.9.3-3.41,1.87-3.77,3.89l-4.34,24.6c-.7,3.96,1.48,9.39,5.83,14.53,1.74,2.05,8.27,8.93,13.61,8.93,7.85,0,22.15-7.41,23.64-15.86l4.34-24.6c.36-2.02-.53-4.01-2.21-4.94ZM74.27,48.22c-3.5,12.84-16.34,12.46-19.23,11.96-8.68-1.53-14.69-9.19-13.97-17.81.16-1.94,2.63-2.74,3.88-1.19,2.64,3.28,7.11,5.68,12.28,6.59,5.17.91,10.2.19,13.79-1.99,1.71-1.02,3.76.56,3.24,2.45ZM43.3,33.31c-.88-.83-.92-2.21-.09-3.09,2.26-2.4,4.98-3.45,7.66-2.99,2.68.47,4.88,2.4,6.17,5.43.47,1.11-.04,2.4-1.15,2.87-1.09.47-2.39-.03-2.88-1.15-.4-.94-1.32-2.56-2.91-2.84-1.59-.31-3.01.93-3.71,1.67-.83.88-2.21.92-3.09.09ZM67.51,51.84c-3.41.82-7.2.92-11.03.24-3.82-.67-7.36-2.06-10.28-3.99,1.52,3.95,5.07,6.98,9.61,7.79,4.54.79,8.92-.84,11.7-4.03ZM76.43,36.07c.47,1.11-.04,2.4-1.15,2.87-1.09.47-2.39-.03-2.88-1.15-.4-.94-1.31-2.56-2.91-2.84-1.61-.29-3.01.93-3.71,1.67-.83.88-2.22.92-3.09.09-.88-.83-.92-2.21-.09-3.09,2.26-2.4,5.01-3.46,7.66-2.98,2.64.47,4.89,2.44,6.17,5.42Z"/>
    </g>
  </g>
</svg>