<?xml version="1.0" encoding="UTF-8"?>
<svg id="Layer_1" data-name="Layer 1" xmlns="http://www.w3.org/2000/svg" viewBox="0 0 89.32 71.1">
  <defs>
    <style>
      .cls-1 {
        isolation: isolate;
      }

      .cls-2 {
        fill: #5fb3e4;
      }
    </style>
  </defs>
  <g id="violin">
    <g class="cls-1">
      <path class="cls-2" d="M48.13,3.74c0,.3-.12.58-.32.78L3.42,48.9c-.2.2-.47.32-.77.32s-.58-.12-.77-.32l-1.55-1.55c-.2-.2-.32-.47-.32-.77s.12-.58.32-.77L44.71,1.42c.2-.2.47-.32.77-.32s.58.12.77.32l1.55,1.55c.2.2.32.47.32.78ZM69.54,34.65c1.15,4.98.13,9.97-3.28,13.39-.51.51-1.1.9-1.67,1.3-.4-.05-.8-.08-1.22-.08-6.03,0-10.28,6.05-8.08,11.82-.71,2.08-1.79,4.01-3.4,5.61-2.96,2.96-6.95,4.4-11.18,4.4-3.25,0-6.63-.89-9.83-2.54l-.79,1.19c-.28.41-.64.74-1.08.98-.14.06-.29.1-.44.14-.28.11-.58.19-.89.22-.04,0-.09.03-.14.03-.23-.02-.45-.06-.66-.13-.14-.02-.27-.04-.4-.08-.42-.15-.79-.39-1.1-.69l-6.97-6.97c-.55-.55-.9-1.32-.9-2.16,0-1.06.54-2,1.37-2.55l1.22-.81c-3.81-7.38-3.4-15.78,1.82-20.99,1.6-1.61,3.52-2.69,5.61-3.4.98.38,2.05.59,3.17.59,4.79,0,8.67-3.89,8.67-8.67,0-.42-.03-.84-.09-1.25.4-.57.78-1.14,1.29-1.65,2.98-2.98,6.59-3.74,9.48-3.74,1.35,0,2.66.16,3.92.45,2.67.62,5.08,2.01,7.19,3.76L82.22,1.74c.4-.4.94-.64,1.55-.64s1.15.24,1.55.64l1.55,1.55c.39.4.64.94.64,1.55s-.25,1.15-.64,1.55l-21.08,21.08c1.76,2.11,3.14,4.52,3.76,7.2ZM65.27,35.64c-.39-1.67-1.3-3.37-2.63-5.04l-13.62,13.62c-.4.4-.94.64-1.55.64s-1.15-.24-1.55-.64l-1.55-1.55c-.39-.4-.64-.94-.64-1.55s.25-1.15.64-1.55l13.61-13.62c-1.68-1.33-3.37-2.25-5.05-2.64-.95-.22-1.92-.33-2.93-.34-2.57,0-4.69.8-6.3,2.37-.01,3.23-1.22,6.19-3.2,8.44-2.39,2.75-5.91,4.49-9.84,4.49-1.03,0-2.03-.12-2.98-.34-1.01.46-1.92,1.08-2.69,1.86-3.68,3.68-4.09,9.77-1.28,15.48l8.31-5.54c.27-.18.58-.32.91-.4.1-.02.21-.04.31-.05.16-.04.32-.06.48-.07.05,0,.09.03.14.03.77.07,1.48.38,2.03.87l2.57,2.58c.55.55.89,1.32.89,2.17,0,.63-.19,1.21-.51,1.7l-5.56,8.34c2.42,1.18,4.97,1.82,7.39,1.82,2.27,0,5.51-.54,8.09-3.12.78-.78,1.41-1.7,1.87-2.71-.22-.95-.33-1.93-.33-2.95,0-7.15,5.76-12.96,12.89-13.05,2.16-2.2,2.91-5.57,2.06-9.25ZM34.62,55.03l-1.05-1.05-10.95,7.3,4.7,4.7,7.3-10.95ZM61.25,10.94c0-1.81,1.47-3.28,3.28-3.28s3.28,1.47,3.28,3.28-1.47,3.28-3.28,3.28-3.28-1.47-3.28-3.28ZM67.81,4.38c0-1.81,1.47-3.28,3.28-3.28s3.28,1.47,3.28,3.28-1.47,3.28-3.28,3.28-3.28-1.47-3.28-3.28ZM80.94,24.07c0,1.81-1.47,3.28-3.28,3.28s-3.28-1.47-3.28-3.28,1.47-3.28,3.28-3.28,3.28,1.47,3.28,3.28ZM87.5,17.5c0,1.81-1.47,3.28-3.28,3.28s-3.28-1.47-3.28-3.28,1.47-3.28,3.28-3.28,3.28,1.47,3.28,3.28Z"/>
    </g>
  </g>
</svg>